<?xml version="1.0" encoding="UTF-8"?>
<svg xmlns="http://www.w3.org/2000/svg" viewBox="0 0 24 24">
  <defs>
    <style>
      .c {
        fill: #fff;
      }

      .d {
        fill: #324158;
      }
    </style>
  </defs>
  <g id="a" data-name="Layer 2">
    <rect class="d" x=".8" y=".8" width="22.39" height="22.39" rx="5.01" ry="5.01"/>
  </g>
  <g id="b" data-name="Layer 1">
    <path class="c" d="M12,2c5.52,0,10,4.48,10,10s-4.48,10-10,10S2,17.52,2,12,6.48,2,12,2M12,4c-4.08,0-7.45,3.05-7.94,7h4.07c.44-1.73,2.01-3,3.87-3s3.43,1.27,3.87,3h4.07c-.49-3.95-3.86-7-7.94-7M12,20c4.08,0,7.45-3.05,7.94-7h-4.07c-.44,1.73-2.01,3-3.87,3s-3.43-1.27-3.87-3h-4.07c.49,3.95,3.86,7,7.94,7M12,10c-1.1,0-2,.9-2,2s.9,2,2,2,2-.9,2-2-.9-2-2-2Z"/>
  </g>
</svg>